<svg xmlns="http://www.w3.org/2000/svg" viewBox="0 0 100 100" width="300" height="300">
  <path d="M 35 15 C 35 15 10 50 10 65 A 25 25 0 0 0 60 65 C 60 50 35 15 35 15 Z" fill="#000000"/>
  <path d="M 35 45 C 35 45 23 60 23 70 A 12 12 0 0 0 47 70 C 47 60 35 45 35 45 Z" fill="#ffffff"/>
  <rect x="65" y="40" width="25" height="48" rx="4" fill="#000000"/>
  <path d="M 65 40 C 65 20 90 20 90 40 Z" fill="#000000"/>
  <rect x="73" y="20" width="9" height="12" fill="#000000"/>
  <line x1="68" y1="24" x2="87" y2="24" stroke="#000000" stroke-width="4" stroke-linecap="round"/>
  <line x1="10" y1="90" x2="95" y2="90" stroke="#000000" stroke-width="4" stroke-linecap="round"/>
</svg>
