<svg xmlns="http://www.w3.org/2000/svg" viewBox="33.7 -100.3 500.5 500.5" role="img" aria-label="Hydraulic energy">
  <title>Hydraulic energy</title>
  <g transform="rotate(-45 284.0 150.0)">
    <path d="M156,98 L156,202 L118,176 L118,124 Z" fill="#0D0D0D"/>
    <rect x="70" y="136" width="50" height="28" rx="12" fill="#0D0D0D"/>
    <rect x="164" y="96" width="92" height="108" rx="13" fill="#0D0D0D"/>
    <rect x="264" y="96" width="70" height="108" rx="13" fill="#0D0D0D"/>
    <rect x="340" y="118" width="28" height="64" rx="9" fill="#0D0D0D"/>
    <rect x="368" y="130" width="14" height="40" rx="5" fill="#0D0D0D"/>
    <rect x="382" y="138" width="92" height="24" rx="7" fill="#0D0D0D"/>
    <rect x="398" y="131" width="9" height="38" rx="3" fill="#0D0D0D"/>
    <rect x="414" y="131" width="9" height="38" rx="3" fill="#0D0D0D"/>
    <path d="M18.0,150.0 a30.0,30.0 0 1,0 60.0,0 a30.0,30.0 0 1,0 -60.0,0 Z M34.0,150.0 a14.0,14.0 0 1,0 28.0,0 a14.0,14.0 0 1,0 -28.0,0 Z" fill="#0D0D0D" fill-rule="evenodd"/>
    <path d="M470.0,150.0 a40.0,40.0 0 1,0 80.0,0 a40.0,40.0 0 1,0 -80.0,0 Z M491.0,150.0 a19.0,19.0 0 1,0 38.0,0 a19.0,19.0 0 1,0 -38.0,0 Z" fill="#0D0D0D" fill-rule="evenodd"/>
  </g>
</svg>
